<?xml version="1.0" encoding="utf-8"?>
<!-- Generator: Adobe Illustrator 17.0.0, SVG Export Plug-In . SVG Version: 6.00 Build 0)  -->
<!DOCTYPE svg PUBLIC "-//W3C//DTD SVG 1.1//EN" "http://www.w3.org/Graphics/SVG/1.1/DTD/svg11.dtd">
<svg version="1.1" id="Layer_1" xmlns="http://www.w3.org/2000/svg" xmlns:xlink="http://www.w3.org/1999/xlink" x="0px" y="0px"
	 width="256px" height="256px" viewBox="0 0 256 256" enable-background="new 0 0 256 256" xml:space="preserve">
<g>
	<polygon fill="#FF6600" points="89.6,0 51.2,0 51.2,51.2 102.4,51.2 	"/>
	<polygon fill="#FF6600" points="204.8,0 166.4,0 153.6,51.2 204.8,51.2 	"/>
	<polygon fill="#FF6600" points="140.8,140.8 153.6,51.2 102.4,51.2 115.2,140.8 	"/>
	<polygon fill="#FF6600" points="204.8,51.2 204.8,102.4 140.8,140.8 153.6,179.2 102.4,179.2 115.2,140.8 51.2,102.4 51.2,51.2 
		0,51.2 0,89.6 0,102.4 51.2,153.6 51.2,204.8 0,153.6 0,204.8 51.2,256 115.2,256 102.4,217.6 153.6,217.6 140.8,256 204.8,256 
		256,204.8 256,153.6 204.8,204.8 204.8,153.6 256,102.4 256,89.6 256,51.2 	"/>
	<polygon fill="#00FF00" points="96,108.8 64,89.6 64,64 89.6,64 	"/>
	<polygon fill="#00FF00" points="192,89.6 160,108.8 166.4,64 192,64 	"/>
</g>
</svg>
