<?xml version="1.0" encoding="utf-8"?>
<!-- Generator: Adobe Illustrator 17.0.0, SVG Export Plug-In . SVG Version: 6.00 Build 0)  -->
<!DOCTYPE svg PUBLIC "-//W3C//DTD SVG 1.1//EN" "http://www.w3.org/Graphics/SVG/1.1/DTD/svg11.dtd">
<svg version="1.1" id="Layer_1" xmlns="http://www.w3.org/2000/svg" xmlns:xlink="http://www.w3.org/1999/xlink" x="0px" y="0px"
	 width="128px" height="128px" viewBox="0 0 128 128" xml:space="preserve">
<path fill="#384182" d="M25,128l33.83-24.142L46.477,29.771L25,128z"/>
<path fill="#384182" d="M59.515,103.632l20.602,0.264L47.275,30.149L59.515,103.632z"/>
<path fill="#384182" d="M82.056,102.007l15.775-58.106l-5.968-7.254L82.056,102.007z"/>
<path fill="#384182" d="M74.453,10.919L48.491,28.298l37.936-12.203L74.453,10.919z"/>
<path fill="#384182" d="M71.184,10.919l-16.117,0.529l-2.357,6.687L71.184,10.919z"/>
<path fill="#F79534" d="M90.722,34.418l-41.547-5.667l37.442-11.712L90.722,34.418z"/>
<path fill="#F79534" d="M80.877,12.581l2.281-6.158L71.184,1.247L80.877,12.581z"/>
<path fill="#F79534" d="M84.336,5.818l2.699,9.672L103,11.296L84.336,5.818z"/>
<path fill="#F0513A" d="M81.029,103.518l-33.298-74.05l43.409,6.045L81.029,103.518z"/>
<path fill="#F0513A" d="M73.199,10.919l-20.526,7.972l-4.942,9.067L73.199,10.919z"/>
<path fill="#F0513A" d="M60.465,4.874l-5.132,5.629l17.03-0.415L60.465,4.874z"/>
<path fill="#F0513A" d="M61.301,4.231l18.55,8.123L69.436,0.491L61.301,4.231z"/>
<path fill="#F0513A" d="M69.968,0L83.5,5.214L78.711,0H69.968z"/>
<path fill="#F0513A" d="M83.766,6.914l-2.091,6.196l4.182,2.002L83.766,6.914z"/>
</svg>
