<?xml version="1.0" encoding="utf-8"?>
<!-- Generator: Adobe Illustrator 17.0.0, SVG Export Plug-In . SVG Version: 6.00 Build 0)  -->
<!DOCTYPE svg PUBLIC "-//W3C//DTD SVG 1.1//EN" "http://www.w3.org/Graphics/SVG/1.1/DTD/svg11.dtd">
<svg version="1.1" id="Layer_1" xmlns="http://www.w3.org/2000/svg" xmlns:xlink="http://www.w3.org/1999/xlink" x="0px" y="0px"
	 width="128px" height="128px" viewBox="0 0 128 128" enable-background="new 0 0 128 128" xml:space="preserve">
<path fill-rule="evenodd" clip-rule="evenodd" fill="#FFFFFF" d="M63.996,0C28.657,0,0,28.653,0,64.004
	c0,28.274,18.336,52.261,43.77,60.725c3.2,0.587,4.368-1.389,4.368-3.085c0-1.519-0.055-5.544-0.086-10.885
	c-17.803,3.868-21.559-8.579-21.559-8.579c-2.91-7.393-7.106-9.362-7.106-9.362c-5.811-3.971,0.44-3.89,0.44-3.89
	c6.423,0.453,9.803,6.595,9.803,6.595c5.709,9.78,14.979,6.956,18.626,5.318c0.581-4.136,2.235-6.956,4.063-8.556
	c-14.212-1.615-29.152-7.106-29.152-31.631c0-6.987,2.494-12.7,6.588-17.174c-0.658-1.619-2.854-8.126,0.627-16.937
	c0,0,5.374-1.721,17.599,6.561c5.105-1.42,10.58-2.129,16.022-2.154c5.435,0.025,10.91,0.735,16.022,2.154
	c12.218-8.282,17.582-6.561,17.582-6.561c3.492,8.811,1.295,15.318,0.637,16.937c4.102,4.474,6.579,10.187,6.579,17.174
	c0,24.586-14.964,29.996-29.221,31.581c2.298,1.976,4.345,5.882,4.345,11.852c0,8.556-0.079,15.459-0.079,17.557
	c0,1.711,1.153,3.703,4.401,3.078C109.679,116.242,128,92.27,128,64.004C128,28.653,99.343,0,63.996,0z"/>
</svg>
